<svg width="40" height="40" viewBox="0 0 40 40" fill="none" xmlns="http://www.w3.org/2000/svg">
<path d="M20.0454 0C30.5019 0 39.0777 7.98908 40 18.1818H23.6901V12.7272C23.6901 11.9928 23.2454 11.3293 22.5657 11.0473C21.8843 10.7656 21.1005 10.9218 20.5796 11.4418L13.2901 18.7148C12.5777 19.4255 12.5777 20.5745 13.2901 21.2856L20.5796 28.5582C21.1005 29.0782 21.8843 29.2347 22.5657 28.9527C23.2454 28.6711 23.6901 28.0072 23.6901 27.2728V21.8182H40C39.0777 32.0109 30.5019 40 20.0454 40C8.97494 40 0 31.0455 0 20.0002C0 8.95455 8.97494 0 20.0454 0V0Z" fill="white"/>
</svg>
