<svg width="40" height="40" viewBox="0 0 40 40" fill="none" xmlns="http://www.w3.org/2000/svg">
<g clip-path="url(#clip0)">
<path d="M10.5469 0C9.89914 0 9.375 0.524141 9.375 1.17188V9.375H7.03125V1.17188C7.03125 0.524141 6.50711 0 5.85938 0C5.21164 0 4.6875 0.524141 4.6875 1.17188V9.375H2.34375V1.17188C2.34375 0.524141 1.81961 0 1.17188 0C0.524141 0 0 0.524141 0 1.17188C0 6.38148 0 7.67781 0 12.8906C0 14.8292 1.57703 16.4844 3.51562 16.4844H8.20312C10.1417 16.4844 11.7188 14.8292 11.7188 12.8906C11.7188 7.67602 11.7188 6.38438 11.7188 1.17188C11.7188 0.524141 11.1946 0 10.5469 0Z" fill="white"/>
<path d="M28.2812 24.6875V13.385C28.2812 13.3817 28.2818 13.3786 28.2818 13.3753C26.3475 10.957 23.3305 9.375 20 9.375C17.8681 9.375 15.7712 10.006 14.0625 11.1552V12.8906C14.0625 15.2872 12.6125 17.4247 10.5469 18.3315V24.7305C12.288 28.1645 15.8933 30.5469 20 30.5469C23.5155 30.5469 26.6921 28.8015 28.6095 26.1496C28.4037 25.703 28.2812 25.2106 28.2812 24.6875Z" fill="white"/>
<path d="M31.7969 28.2032C31.2524 28.2032 30.7429 28.0683 30.2824 27.8464C27.9234 30.9072 24.1542 32.8907 20 32.8907C16.305 32.8907 12.8994 31.3193 10.5469 28.8202V34.9295C13.2623 36.6475 16.5491 37.6564 20 37.6564C25.1006 37.6564 29.7577 35.3925 32.9688 31.9224V28.2032H31.7969Z" fill="white"/>
<path d="M20 2.34375C17.9422 2.34375 15.8977 2.71555 14.0625 3.36531V8.43687C15.8461 7.52445 17.9179 7.03125 20 7.03125C23.2659 7.03125 26.321 8.26195 28.595 10.2711C28.899 8.61625 29.4104 7.01797 30.1537 5.53094C27.2992 3.52867 23.7515 2.34375 20 2.34375Z" fill="white"/>
<path d="M39.3809 0.13937C39.002 -0.0643016 38.5386 -0.041411 38.178 0.19773C32.8334 3.76085 30.625 8.36617 30.625 13.3859V24.6884C30.625 25.3362 31.1491 25.8603 31.7969 25.8603H35.3125V37.6572C35.3125 38.9515 36.3618 40.0009 37.6562 40.0009C38.9507 40.0009 40 38.9515 40 37.6572C40 18.9173 40 19.5605 40 1.17281C40 0.74023 39.762 0.34312 39.3809 0.13937Z" fill="white"/>
<path d="M3.51562 18.8281V37.6562C3.51562 38.9505 4.56492 40 5.85938 40C7.15383 40 8.20312 38.9505 8.20312 37.6562V18.8281H3.51562Z" fill="white"/>
</g>
<defs>
<clipPath id="clip0">
<rect width="40" height="40" fill="white"/>
</clipPath>
</defs>
</svg>
