<svg width="40" height="40" viewBox="0 0 40 40" fill="none" xmlns="http://www.w3.org/2000/svg">
<g clip-path="url(#clip0)">
<path d="M20.8334 0C20.3734 0 20 0.373359 20 0.833359V19.1667C20 19.6267 20.3734 20.0001 20.8334 20.0001H39.1667C39.6267 20.0001 40.0001 19.6267 40.0001 19.1667C40 8.59836 31.4016 0 20.8334 0Z" fill="white"/>
<path d="M29.825 35.3216L18.3334 20.5483V2.49999C18.3334 2.03999 17.96 1.66663 17.5 1.66663C7.85 1.66663 0 10.265 0 20.8333C0 31.4015 8.59836 40 19.1666 40C23.895 40 26.4533 39.1433 29.695 36.4766C30.0434 36.19 30.1016 35.6783 29.825 35.3216Z" fill="white"/>
<path d="M39.1666 21.6666H22.5C22.18 21.6666 21.8866 21.8516 21.7484 22.1416C21.6101 22.4316 21.65 22.775 21.8534 23.0233L32.6867 36.4349C32.8317 36.6149 33.0451 36.7265 33.2767 36.7433C33.2967 36.7449 33.3151 36.7449 33.3351 36.7449C33.5451 36.7449 33.7484 36.6649 33.9034 36.5215C37.7766 32.9066 40 27.7966 40 22.5C40 22.04 39.6266 21.6666 39.1666 21.6666Z" fill="white"/>
</g>
<defs>
<clipPath id="clip0">
<rect width="40" height="40" fill="white"/>
</clipPath>
</defs>
</svg>
