<svg width="34" height="40" viewBox="0 0 34 40" fill="none" xmlns="http://www.w3.org/2000/svg">
<path d="M16.4337 19.2681C19.0808 19.2681 21.373 18.3187 23.2458 16.4456C25.1187 14.5727 26.0681 12.2811 26.0681 9.63375C26.0681 6.98728 25.1187 4.69542 23.2455 2.82195C21.3724 0.949398 19.0805 0 16.4337 0C13.7863 0 11.4948 0.949398 9.62189 2.82225C7.74902 4.69511 6.79932 6.98697 6.79932 9.63375C6.79932 12.2811 7.74902 14.573 9.62219 16.4459C11.4954 18.3184 13.7872 19.2681 16.4337 19.2681V19.2681Z" fill="white"/>
<path d="M33.2913 30.758C33.2373 29.9785 33.1281 29.1283 32.9672 28.2305C32.8049 27.326 32.5958 26.4709 32.3456 25.6893C32.0871 24.8815 31.7355 24.0838 31.301 23.3193C30.8499 22.5259 30.3201 21.835 29.7256 21.2664C29.104 20.6716 28.3429 20.1934 27.4628 19.8446C26.5857 19.4976 25.6137 19.3218 24.574 19.3218C24.1656 19.3218 23.7708 19.4894 23.0081 19.9859C22.5388 20.292 21.9897 20.646 21.377 21.0375C20.853 21.3714 20.1431 21.6842 19.2664 21.9674C18.4109 22.2442 17.5424 22.3846 16.6852 22.3846C15.8279 22.3846 14.9597 22.2442 14.1034 21.9674C13.2275 21.6845 12.5177 21.3717 11.9943 21.0378C11.3873 20.65 10.838 20.296 10.3616 19.9856C9.59991 19.4891 9.20471 19.3215 8.79639 19.3215C7.75635 19.3215 6.78467 19.4976 5.9079 19.8449C5.02838 20.1931 4.26697 20.6713 3.64471 21.2667C3.05054 21.8356 2.52045 22.5262 2.07001 23.3193C1.63574 24.0838 1.28418 24.8812 1.02539 25.6896C0.775452 26.4712 0.566406 27.326 0.404053 28.2305C0.243225 29.1271 0.133972 29.9776 0.0799561 30.7589C0.0268555 31.5242 0 32.3186 0 33.1209C0 35.2089 0.663757 36.8993 1.97266 38.1459C3.26538 39.3761 4.97589 40.0002 7.05597 40.0002H26.3162C28.3963 40.0002 30.1062 39.3764 31.3992 38.1459C32.7084 36.9002 33.3722 35.2095 33.3722 33.1206C33.3719 32.3146 33.3447 31.5197 33.2913 30.758V30.758Z" fill="white"/>
</svg>
